# xmcd
#
# Track frame offsets:
#	150
#	10796
#	20198
#	33162
#	44161
#	54757
#	66268
#	77053
#	89199
#	100080
#	114526
#	124238
#
# Disc length: 1801 seconds
#
# Revision: 1
# Processed by: cddbd v1.5.2PL0 Copyright (c) Steve Scherf et al.
# Submitted via: audiograbber 1.83.01
#
DISCID=a007070c
DTITLE=Gerd Böttcher - Die Grossen Erfolge
DYEAR=1966
DGENRE=Schlager
TTITLE0=Geld Wie Heu
TTITLE1=Ich Finde Nichts Dabei
TTITLE2=Pretty Woman
TTITLE3=Ein Dutzend Andre Männer
TTITLE4=Bing-Bang-Bungalow
TTITLE5=Tschau - Auf Wiedersehn
TTITLE6=Für Gaby Tu Ich Alles
TTITLE7=Tina-Lou
TTITLE8=Meine Braut, Die Kann Das Besser
TTITLE9=Ich Komme Wieder
TTITLE10=Ich Such´ Dich Auf Allen Wegen
TTITLE11=Adieu - Lebewohl - Goodbye
EXTD=
EXTT0=
EXTT1=
EXTT2=
EXTT3=
EXTT4=
EXTT5=
EXTT6=
EXTT7=
EXTT8=
EXTT9=
EXTT10=
EXTT11=
PLAYORDER=
